<svg viewBox="0 0 1200 400" xmlns="http://www.w3.org/2000/svg">
  <defs>
    <linearGradient id="b" x1="0%" y1="0%" x2="100%" y2="100%">
      <stop offset="0%" style="stop-color:#ff9a9e;stop-opacity:.3"/>
      <stop offset="30%" style="stop-color:#fecfef;stop-opacity:.2"/>
      <stop offset="60%" style="stop-color:#fecfef;stop-opacity:.15"/>
      <stop offset="100%" style="stop-color:#ffecd2;stop-opacity:.25"/>
    </linearGradient>
    <linearGradient id="h" x1="0%" y1="0%" x2="100%" y2="100%">
      <stop offset="0%" style="stop-color:#ff6b6b;stop-opacity:.9"/>
      <stop offset="100%" style="stop-color:#ee5a24;stop-opacity:.9"/>
    </linearGradient>
    <linearGradient id="j" x1="0%" y1="0%" x2="100%" y2="100%">
      <stop offset="0%" style="stop-color:#4834d4;stop-opacity:.9"/>
      <stop offset="100%" style="stop-color:#686de0;stop-opacity:.9"/>
    </linearGradient>
    <linearGradient id="k" x1="0%" y1="0%" x2="100%" y2="100%">
      <stop offset="0%" style="stop-color:#00d2d3;stop-opacity:.9"/>
      <stop offset="100%" style="stop-color:#01a3a4;stop-opacity:.9"/>
    </linearGradient>
    <linearGradient id="l" x1="0%" y1="0%" x2="100%" y2="100%">
      <stop offset="0%" style="stop-color:#ffa726;stop-opacity:.9"/>
      <stop offset="100%" style="stop-color:#ff7043;stop-opacity:.9"/>
    </linearGradient>
    <radialGradient id="a" cx="50%" cy="30%" r="80%">
      <stop offset="0%" style="stop-color:#667eea;stop-opacity:1"/>
      <stop offset="25%" style="stop-color:#764ba2;stop-opacity:1"/>
      <stop offset="50%" style="stop-color:#f093fb;stop-opacity:.8"/>
      <stop offset="75%" style="stop-color:#4facfe;stop-opacity:.9"/>
      <stop offset="100%" style="stop-color:#00f2fe;stop-opacity:1"/>
    </radialGradient>
    <radialGradient id="c" cx="20%" cy="20%" r="40%">
      <stop offset="0%" style="stop-color:#ff6b6b;stop-opacity:.15"/>
      <stop offset="100%" style="stop-color:#4ecdc4;stop-opacity:.1"/>
    </radialGradient>
    <radialGradient id="d" cx="80%" cy="80%" r="50%">
      <stop offset="0%" style="stop-color:#45b7d1;stop-opacity:.12"/>
      <stop offset="100%" style="stop-color:#f093fb;stop-opacity:.08"/>
    </radialGradient>
    <radialGradient id="e" cx="70%" cy="30%" r="35%">
      <stop offset="0%" style="stop-color:#96ceb4;stop-opacity:.1"/>
      <stop offset="100%" style="stop-color:#ffeaa7;stop-opacity:.12"/>
    </radialGradient>
    <filter id="g">
      <feTurbulence baseFrequency=".9" numOctaves="3" result="noise"/>
      <feColorMatrix in="noise" type="saturate" values="0"/>
      <feComponentTransfer result="monoNoise">
        <feFuncA type="discrete" tableValues="0.05 0.1 0.08 0.12"/>
      </feComponentTransfer>
      <feBlend in="SourceGraphic" in2="monoNoise" mode="overlay"/>
    </filter>
    <filter id="i" x="-50%" y="-50%" width="200%" height="200%">
      <feDropShadow dx="0" dy="8" stdDeviation="15" flood-color="#000" flood-opacity=".25"/>
    </filter>
    <pattern id="f" patternUnits="userSpaceOnUse" width="30" height="30">
      <circle cx="15" cy="15" r="1.5" fill="#fff" opacity=".08"/>
      <circle cx="5" cy="5" r=".8" fill="#fff" opacity=".05"/>
      <circle cx="25" cy="25" r=".8" fill="#fff" opacity=".05"/>
    </pattern>
  </defs>
  <rect width="100%" height="100%" fill="url(#a)"/>
  <rect width="100%" height="100%" fill="url(#b)"/>
  <rect width="100%" height="100%" fill="url(#c)"/>
  <rect width="100%" height="100%" fill="url(#d)"/>
  <rect width="100%" height="100%" fill="url(#e)"/>
  <rect width="100%" height="100%" fill="url(#f)"/>
  <rect width="100%" height="100%" filter="url(#g)" opacity=".6"/>
  <circle cx="120" cy="90" r="80" fill="#fff" opacity=".06"/>
  <circle cx="1080" cy="140" r="100" fill="#fff" opacity=".05"/>
  <circle cx="580" cy="320" r="70" fill="#fff" opacity=".04"/>
  <circle cx="220" cy="340" r="55" fill="#fff" opacity=".07"/>
  <circle cx="980" cy="60" r="45" fill="#fff" opacity=".08"/>
  <circle cx="400" cy="50" r="35" fill="#fff" opacity=".06"/>
  <circle cx="800" cy="380" r="40" fill="#fff" opacity=".05"/>
  <path fill="#fff" opacity=".04" d="m50 200 20-20 20 20-20 20z"/>
  <path fill="#fff" opacity=".05" d="m1150 250 15-20 15 20-15 20z"/>
  <rect x="300" y="380" width="20" height="20" rx="3" fill="#fff" opacity=".03" transform="rotate(45 310 390)"/>
  <rect x="900" y="30" width="15" height="15" rx="2" fill="#fff" opacity=".04" transform="rotate(30 907.5 37.5)"/>
  <text x="600" y="45" text-anchor="middle" fill="#fff" font-family="Arial, sans-serif" font-size="36" font-weight="bold">
    Platform Impact
  </text>
  <text x="600" y="70" text-anchor="middle" fill="#fff" font-family="Arial, sans-serif" font-size="16" opacity=".9">
    Real results from communities using our portal
  </text>
  <g transform="translate(100 100)">
    <rect width="220" height="140" rx="15" fill="url(#h)" filter="url(#i)" opacity=".95"/>
    <rect x="2" y="2" width="216" height="136" rx="13" fill="none" stroke="#fff" opacity=".3"/>
    <circle cx="35" cy="35" r="20" fill="#fff" opacity=".2"/>
    <path d="m27 30 8 8 8-8" stroke="#fff" stroke-width="3" fill="none" stroke-linecap="round" stroke-linejoin="round"/>
    <rect x="24" y="35" width="22" height="12" stroke="#fff" stroke-width="2" fill="none" rx="2"/>
    <text x="70" y="35" fill="#fff" font-family="Arial, sans-serif" font-size="32" font-weight="bold">
      15,847
    </text>
    <text x="70" y="50" fill="#fff" font-family="Arial, sans-serif" font-size="12" font-weight="600" opacity=".9">
      REPORTS SUBMITTED
    </text>
    <rect x="20" y="85" width="180" height="8" rx="4" fill="#fff" opacity=".3"/>
    <rect x="20" y="85" width="0" height="8" rx="4" fill="#fff">
      <animate attributeName="width" values="0;162" dur="2s" begin="0s" fill="freeze"/>
    </rect>
    <text x="110" y="115" text-anchor="middle" fill="#fff" font-family="Arial, sans-serif" font-size="12" font-weight="600">
      ↑ 90% increase this year
    </text>
  </g>
  <g transform="translate(340 100)">
    <rect width="220" height="140" rx="15" fill="url(#j)" filter="url(#i)" opacity=".95"/>
    <rect x="2" y="2" width="216" height="136" rx="13" fill="none" stroke="#fff" opacity=".3"/>
    <circle cx="35" cy="35" r="20" fill="#fff" opacity=".2"/>
    <path d="m25 35 7 7 13-14" stroke="#fff" stroke-width="4" fill="none" stroke-linecap="round" stroke-linejoin="round"/>
    <text x="70" y="35" fill="#fff" font-family="Arial, sans-serif" font-size="32" font-weight="bold">
      12,693
    </text>
    <text x="70" y="50" fill="#fff" font-family="Arial, sans-serif" font-size="12" font-weight="600" opacity=".9">
      ISSUES RESOLVED
    </text>
    <rect x="20" y="85" width="180" height="8" rx="4" fill="#fff" opacity=".3"/>
    <rect x="20" y="85" width="0" height="8" rx="4" fill="#fff">
      <animate attributeName="width" values="0;144" dur="2s" begin="0.5s" fill="freeze"/>
    </rect>
    <text x="110" y="115" text-anchor="middle" fill="#fff" font-family="Arial, sans-serif" font-size="12" font-weight="600">
      ✓ 80% resolution rate
    </text>
  </g>
  <g transform="translate(580 100)">
    <rect width="220" height="140" rx="15" fill="url(#k)" filter="url(#i)" opacity=".95"/>
    <rect x="2" y="2" width="216" height="136" rx="13" fill="none" stroke="#fff" opacity=".3"/>
    <circle cx="35" cy="35" r="20" fill="#fff" opacity=".2"/>
    <circle cx="35" cy="35" r="12" stroke="#fff" stroke-width="2" fill="none"/>
    <path d="M35 28v7l6 6" stroke="#fff" stroke-width="3" fill="none" stroke-linecap="round"/>
    <text x="70" y="35" fill="#fff" font-family="Arial, sans-serif" font-size="32" font-weight="bold">
      2.4
    </text>
    <text x="120" y="32" fill="#fff" font-family="Arial, sans-serif" font-size="18" opacity=".9">
      days
    </text>
    <text x="70" y="50" fill="#fff" font-family="Arial, sans-serif" font-size="12" font-weight="600" opacity=".9">
      AVG RESPONSE TIME
    </text>
    <rect x="20" y="85" width="180" height="8" rx="4" fill="#fff" opacity=".3"/>
    <rect x="20" y="85" width="0" height="8" rx="4" fill="#fff">
      <animate attributeName="width" values="0;126" dur="2s" begin="1s" fill="freeze"/>
    </rect>
    <text x="110" y="115" text-anchor="middle" fill="#fff" font-family="Arial, sans-serif" font-size="12" font-weight="600">
      ⚡ 60% faster than before
    </text>
  </g>
  <g transform="translate(820 100)">
    <rect width="220" height="140" rx="15" fill="url(#l)" filter="url(#i)" opacity=".95"/>
    <rect x="2" y="2" width="216" height="136" rx="13" fill="none" stroke="#fff" opacity=".3"/>
    <circle cx="35" cy="35" r="20" fill="#fff" opacity=".2"/>
    <circle cx="30" cy="31" r="2.5" fill="#fff"/>
    <circle cx="40" cy="31" r="2.5" fill="#fff"/>
    <path d="M25 40q10 8 20 0" stroke="#fff" stroke-width="3" fill="none" stroke-linecap="round"/>
    <text x="70" y="35" fill="#fff" font-family="Arial, sans-serif" font-size="32" font-weight="bold">
      4.7
    </text>
    <text x="110" y="35" fill="#fff" font-family="Arial, sans-serif" font-size="18" opacity=".9">
      /5
    </text>
    <text x="70" y="50" fill="#fff" font-family="Arial, sans-serif" font-size="12" font-weight="600" opacity=".9">
      USER SATISFACTION
    </text>
    <rect x="20" y="85" width="180" height="8" rx="4" fill="#fff" opacity=".3"/>
    <rect x="20" y="85" width="0" height="8" rx="4" fill="#fff">
      <animate attributeName="width" values="0;169" dur="2s" begin="1.5s" fill="freeze"/>
    </rect>
    <text x="110" y="115" text-anchor="middle" fill="#fff" font-family="Arial, sans-serif" font-size="12" font-weight="600">
      ❤️ 94% positive feedback
    </text>
  </g>
  <text x="600" y="310" text-anchor="middle" fill="#fff" font-family="Arial, sans-serif" font-size="24" font-weight="bold">
    Making Government More Responsive
  </text>
  <text x="600" y="335" text-anchor="middle" fill="#fff" font-family="Arial, sans-serif" font-size="16" opacity=".9">
    Join thousands of citizens creating positive change in their communities
  </text>
  <text x="600" y="365" text-anchor="middle" fill="#fff" font-family="Arial, sans-serif" font-size="14" font-weight="300" opacity=".75">
    Empowering Citizens • Enabling Government • Building Better Communities
  </text>
</svg>
